<svg width="180" height="35" xmlns="http://www.w3.org/2000/svg" xmlns:xlink="http://www.w3.org/1999/xlink"><defs><path d="M1.116 32.251L.001 3.361C-.036 2.408.717 1.6 1.697 1.54L26.969.003c.998-.06 1.857.677 1.92 1.647.002.037.003.073.003.11v31.48c0 .972-.81 1.76-1.81 1.76-.027 0-.054 0-.081-.002L2.844 33.943c-.941-.04-1.692-.777-1.728-1.692z" id="a"/><path d="M1.116 32.251L.001 3.361C-.036 2.408.717 1.6 1.697 1.54L26.969.003c.998-.06 1.857.677 1.92 1.647.002.037.003.073.003.11v31.48c0 .972-.81 1.76-1.81 1.76-.027 0-.054 0-.081-.002L2.844 33.943c-.941-.04-1.692-.777-1.728-1.692z" id="c"/></defs><g fill="none" fill-rule="evenodd"><path d="M47.976 27.861c-1.536 0-3.014-.2-4.434-.599-1.42-.4-2.601-.952-3.542-1.658l1.44-3.093c1.958 1.319 4.156 1.978 6.594 1.978 1.267 0 2.24-.2 2.922-.599.682-.4 1.023-.952 1.023-1.658 0-.632-.312-1.124-.936-1.477-.624-.353-1.733-.697-3.326-1.031-1.785-.353-3.21-.78-4.276-1.282-1.065-.502-1.843-1.12-2.332-1.854-.49-.734-.735-1.64-.735-2.717 0-1.19.341-2.248 1.023-3.177.681-.93 1.636-1.658 2.865-2.188 1.228-.53 2.649-.794 4.261-.794 1.44 0 2.827.204 4.161.613 1.334.409 2.395.957 3.182 1.644l-1.44 3.094c-1.862-1.32-3.82-1.979-5.874-1.979-1.171 0-2.092.218-2.764.655-.672.437-1.008 1.036-1.008 1.798 0 .445.13.812.389 1.1.259.288.69.544 1.295.767.605.223 1.464.455 2.578.697 2.61.557 4.487 1.272 5.629 2.146 1.142.873 1.713 2.08 1.713 3.623 0 1.857-.739 3.32-2.217 4.389-1.478 1.068-3.542 1.602-6.19 1.602zm18.832-3.12c.441 0 .902-.029 1.382-.085l-.23 3.066c-.557.074-1.114.112-1.67.112-2.15 0-3.72-.456-4.708-1.366-.989-.91-1.483-2.295-1.483-4.153v-5.239H57.42v-3.15h2.678V9.915h4.348v4.013h3.541v3.149h-3.541v5.212c0 1.635.787 2.452 2.36 2.452zm10.107 3.093c-1.497 0-2.812-.293-3.945-.878-1.133-.586-2.006-1.412-2.62-2.48-.615-1.069-.922-2.328-.922-3.777 0-1.45.307-2.708.922-3.776.614-1.069 1.487-1.89 2.62-2.467 1.133-.576 2.448-.864 3.945-.864 1.497 0 2.812.288 3.945.864 1.132.576 2.006 1.398 2.62 2.467.614 1.068.921 2.327.921 3.776 0 1.45-.307 2.708-.921 3.776-.614 1.069-1.488 1.895-2.62 2.48-1.133.586-2.448.879-3.945.879zm0-3.205c2.111 0 3.167-1.31 3.167-3.93 0-1.32-.273-2.304-.82-2.954-.547-.65-1.33-.976-2.347-.976-2.112 0-3.168 1.31-3.168 3.93s1.056 3.93 3.168 3.93zm19.523-7.58l-2.448.25c-1.21.111-2.063.441-2.563.99-.499.547-.748 1.277-.748 2.187v7.135H86.33V13.927h4.175v2.313c.71-1.58 2.179-2.443 4.406-2.592l1.267-.084.259 3.484zm12.633-3.094h4.262l-8.523 18.672h-4.406l2.707-5.769-5.817-12.903h4.521l3.57 8.695 3.686-8.695zm14.34-.363c1.229 0 2.313.288 3.254.864.94.576 1.675 1.398 2.203 2.467.528 1.068.792 2.308.792 3.72 0 1.412-.264 2.662-.792 3.749-.528 1.087-1.267 1.932-2.217 2.536-.95.604-2.03.906-3.24.906-.979 0-1.862-.2-2.649-.6-.787-.4-1.392-.952-1.814-1.658v2.035h-4.29V7.963h4.348v7.803c.422-.687 1.022-1.221 1.8-1.602.777-.381 1.645-.572 2.605-.572zm-1.267 11.037c1.018 0 1.805-.349 2.361-1.046.557-.696.835-1.676.835-2.94 0-1.245-.278-2.197-.835-2.856-.556-.66-1.343-.99-2.36-.99-1.018 0-1.805.34-2.362 1.018-.557.678-.835 1.64-.835 2.884 0 1.263.278 2.234.835 2.912.557.679 1.344 1.018 2.361 1.018zm16.96 3.205c-1.497 0-2.812-.293-3.945-.878-1.132-.586-2.006-1.412-2.62-2.48-.614-1.069-.921-2.328-.921-3.777 0-1.45.307-2.708.921-3.776.614-1.069 1.488-1.89 2.62-2.467 1.133-.576 2.448-.864 3.945-.864 1.498 0 2.813.288 3.945.864 1.133.576 2.006 1.398 2.62 2.467.615 1.068.922 2.327.922 3.776 0 1.45-.307 2.708-.922 3.776-.614 1.069-1.487 1.895-2.62 2.48-1.132.586-2.447.879-3.945.879zm0-3.205c2.112 0 3.168-1.31 3.168-3.93 0-1.32-.274-2.304-.821-2.954-.547-.65-1.33-.976-2.347-.976-2.111 0-3.167 1.31-3.167 3.93s1.056 3.93 3.167 3.93zm16.212 3.205c-1.498 0-2.813-.293-3.945-.878-1.133-.586-2.006-1.412-2.62-2.48-.615-1.069-.922-2.328-.922-3.777 0-1.45.307-2.708.922-3.776.614-1.069 1.487-1.89 2.62-2.467 1.132-.576 2.447-.864 3.945-.864 1.497 0 2.812.288 3.945.864 1.132.576 2.006 1.398 2.62 2.467.614 1.068.921 2.327.921 3.776 0 1.45-.307 2.708-.921 3.776-.614 1.069-1.488 1.895-2.62 2.48-1.133.586-2.448.879-3.945.879zm0-3.205c2.111 0 3.167-1.31 3.167-3.93 0-1.32-.273-2.304-.82-2.954-.548-.65-1.33-.976-2.347-.976-2.112 0-3.168 1.31-3.168 3.93s1.056 3.93 3.168 3.93zM180 27.61h-5.327l-5.413-6.104v6.104h-4.348V7.963h4.348v11.816l5.211-5.824h5.183l-5.931 6.521L180 27.611z" fill="#333" fill-rule="nonzero"/><path d="M1.116 32.251L.001 3.361C-.036 2.408.717 1.6 1.697 1.54L26.969.003c.998-.06 1.857.677 1.92 1.647.002.037.003.073.003.11v31.48c0 .972-.81 1.76-1.81 1.76-.027 0-.054 0-.081-.002L2.844 33.943c-.941-.04-1.692-.777-1.728-1.692z" fill="#FF4785"/><g><mask id="b" fill="#fff"><use xlink:href="#a"/></mask><path d="M21.334 4.302l.173-4.037L24.977 0l.15 4.163a.266.266 0 0 1-.26.272.275.275 0 0 1-.177-.057l-1.338-1.025-1.585 1.17a.275.275 0 0 1-.378-.051.258.258 0 0 1-.055-.17z" fill="#FFF" mask="url(#b)"/></g><g><mask id="d" fill="#fff"><use xlink:href="#c"/></mask><path d="M16.896 13.192c0 .685 4.743.356 5.38-.124 0-4.663-2.573-7.112-7.285-7.112-4.711 0-7.35 2.488-7.35 6.22 0 6.5 9.021 6.624 9.021 10.17 0 .995-.501 1.585-1.604 1.585-1.437 0-2.005-.713-1.938-3.139 0-.526-5.48-.69-5.647 0-.425 5.879 3.342 7.574 7.652 7.574 4.177 0 7.451-2.164 7.451-6.083 0-6.966-9.155-6.78-9.155-10.232 0-1.4 1.07-1.586 1.704-1.586.668 0 1.871.115 1.77 2.727z" fill="#FFF" mask="url(#d)"/></g></g></svg>
