
<svg width="101px" height="33px" viewBox="0 0 101 33" version="1.1" xmlns="http://www.w3.org/2000/svg" xmlns:xlink="http://www.w3.org/1999/xlink">
    <g id="Welcome" stroke="none" stroke-width="1" fill="none" fill-rule="evenodd">
        <g id="Desktop-HD" transform="translate(-477.000000, -784.000000)" fill="#6441A4" fill-rule="nonzero">
            <g id="They-are-using-it" transform="translate(466.000000, 773.000000)">
                <g id="Twitch_Purple_RGB" transform="translate(11.000000, 11.000000)">
                    <path d="M96.2470588,5.37209302 L89.9098039,5.37209302 L89.9098039,0.38372093 L78.8196078,0.38372093 L73.6705882,5.37209302 L68.1254902,5.37209302 L64.9568627,8.05813953 L64.9568627,5.37209302 L59.8078431,5.37209302 L59.8078431,0 L40.0039216,0 L40.0039216,5.37209302 L16.2392157,5.37209302 L10.6941176,0 L0,0 L0,22.6395349 L5.14901961,27.627907 L14.2588235,33 L21.3882353,33 L21.3882353,31.4651163 L24.1607843,33 L38.4196078,33 L40.7960784,29.9302326 L41.1921569,33 L50.3019608,33 L50.6980392,29.9302326 L53.8666667,33 L62.1843137,33 L62.5803922,29.9302326 L65.3529412,33 L74.4627451,33 L78.027451,29.9302326 L78.027451,33 L82.7368235,33 L87.1372549,29.9302326 L87.1372549,33 L92.6823529,33 L101,26.8604651 L101,9.97674419 L96.2470588,5.37209302 Z M13.8627451,13.8139535 L8.31764706,13.8139535 L8.31764706,19.1860465 L13.8627451,19.1860465 L13.8627451,25.3677907 L6.3372549,25.3677907 L2.37647059,21.4883721 L2.37647059,2.30232558 L8.31764706,2.30232558 L8.31764706,7.6744186 L13.8627451,7.6744186 L13.8627451,13.8139535 Z M40.0039216,21.1046512 L36.0431373,25.3255814 L16.1956471,25.3677907 L16.2392157,7.6744186 L22.5764706,7.6744186 L22.5764706,19.1860465 L24.9529412,19.1860465 L24.9529412,7.6744186 L31.2901961,7.6744186 L31.2901961,19.1860465 L33.6666667,19.1860465 L33.6666667,7.6744186 L40.0039216,7.6744186 L40.0039216,21.1046512 Z M48.7176471,25.3255814 L42.3803922,25.3255814 L42.3803922,7.6744186 L48.7176471,7.6744186 L48.7176471,25.3255814 Z M48.7176471,5.37209302 L42.3803922,5.37209302 L42.3803922,2.30232558 L48.7176471,2.30232558 L48.7176471,5.37209302 Z M62.5803922,13.8139535 L57.4313725,13.8139535 L57.4313725,19.1860465 L62.5803922,19.1860465 L62.5803922,25.3255814 L55.054902,25.3255814 L51.0941176,21.4883721 L51.0941176,2.30232558 L57.4313725,2.30232558 L57.4313725,7.6744186 L62.5803922,7.6744186 L62.5803922,13.8139535 Z M78.8196078,13.8139535 L70.8980392,13.8139535 L70.8980392,19.1860465 L78.8196078,19.1860465 L78.8196078,25.3255814 L68.9176471,25.3255814 L64.9568627,21.4883721 L64.9568627,11.5116279 L68.9176471,7.6744186 L78.8196078,7.6744186 L78.8196078,13.8139535 Z M98.6235294,25.3255814 L93.0784314,25.3255814 L93.0784314,13.8139535 L87.1372549,13.8139535 L87.1372549,25.3255814 L81.1960784,25.3255814 L81.1960784,2.68604651 L87.5333333,2.68604651 L87.5333333,7.6744186 L95.0588235,7.6744186 L98.6235294,11.5116279 L98.6235294,25.3255814 Z" id="Shape"></path>
                </g>
            </g>
        </g>
    </g>
</svg>
