<svg width="112" height="37" xmlns="http://www.w3.org/2000/svg"><defs><linearGradient x1="6.607%" y1="50%" x2="83.904%" y2="50%" id="a"><stop stop-color="#1E8D55" offset="0%"/><stop stop-color="#134225" offset="100%"/></linearGradient><linearGradient x1="93.603%" y1="14.692%" x2="17.977%" y2="86.452%" id="b"><stop stop-color="#1E8D55" offset="0%"/><stop stop-color="#134225" offset="100%"/></linearGradient><linearGradient x1="7.499%" y1="25.89%" x2="73.356%" y2="50%" id="c"><stop stop-color="#1E8D55" offset="0%"/><stop stop-color="#134225" offset="100%"/></linearGradient></defs><g fill="none" fill-rule="evenodd"><ellipse fill="#AAE1D1" cx="18.413" cy="18.5" rx="18.413" ry="18.5"/><path fill="url(#a)" d="M.755 0h15.053l.039.237-4.388 4.11H2.856L.755 0" transform="translate(9.66 8.355)"/><path fill="url(#b)" d="M7.14 15.218l-6.88-.042-.26-.209L15.795 0l2.316 4.479z" transform="translate(9.66 8.355)"/><path fill="url(#c)" d="M15.612 15.218H0l2.44 5.072h15.67l-2.498-5.072" transform="translate(9.66 8.355)"/><path d="M58.992 28.048H46.66v-1.934l8.69-12.717h-8.454v-2.39h11.861v1.959l-8.725 12.693h8.961v2.39zm16.566-17.04v11.026c0 1.259-.273 2.36-.82 3.304-.545.945-1.335 1.671-2.369 2.18-1.034.509-2.27.764-3.708.764-2.138 0-3.8-.56-4.988-1.679-1.187-1.119-1.78-2.657-1.78-4.616v-10.98h2.83V21.79c0 1.407.33 2.444.99 3.112.66.669 1.674 1.003 3.042 1.003 2.657 0 3.985-1.38 3.985-4.138V11.008h2.818zm4.41 17.04v-17.04h2.818v14.651h7.299v2.39H79.968zm13.088 0v-17.04h2.818v17.04h-2.818zM111.84 16.16c0 1.779-.59 3.143-1.769 4.09-1.179.949-2.857 1.423-5.034 1.423h-1.793v6.375h-2.818v-17.04h4.964c2.154 0 3.768.435 4.84 1.305 1.074.87 1.61 2.153 1.61 3.847zm-8.596 3.17h1.498c1.446 0 2.507-.249 3.183-.746.676-.497 1.014-1.274 1.014-2.331 0-.98-.302-1.71-.907-2.192-.606-.481-1.549-.722-2.83-.722h-1.958v5.99z" fill="#62C6B5"/></g></svg>
