
<svg width="134px" height="134px" viewBox="0 0 134 111" version="1.1" xmlns="http://www.w3.org/2000/svg" xmlns:xlink="http://www.w3.org/1999/xlink">
    <defs>
        <path d="M126.693669,60.172875 C127.385138,57.574875 127.733834,54.8895 127.733834,52.140375 C127.733834,43.67475 124.354591,35.995125 118.893906,30.40725 L118.897238,30.406125 L118.799884,30.307125 C118.791,30.2985 118.782486,30.2895 118.773602,30.280875 L98.0284033,9.267 C97.9854641,9.223125 97.9421547,9.179625 97.8992155,9.136125 L97.7111713,8.945625 L97.7145028,8.958 C92.2105083,3.505875 84.688,0.1365 76.4003591,0.1365 L32.5594088,0.1365 C15.7350055,0.1365 2.04775691,14.002875 2.04775691,31.046625 C2.04775691,41.37375 7.07127624,50.533125 14.7740552,56.149125 C6.46827624,57.127875 0,64.298625 0,72.97125 C0,77.65725 1.88932597,81.904125 4.93616022,84.9735 L25.3785635,105.673125 L25.3789337,105.667875 C28.4294696,108.946875 32.7507845,111 37.5388785,111 L53.381232,111 C61.7355028,111 69.3161271,107.5815 74.8319669,102.05175 C77.653,107.373375 83.2017845,111 89.5704862,111 L103.365083,111 C120.189486,111 133.876735,97.133625 133.876735,80.089875 C133.876735,72.703875 131.310006,65.7015 126.693669,60.172875" id="path-1"></path>
        <linearGradient x1="2.37898398%" y1="13.219635%" x2="90.8581651%" y2="91.0180086%" id="linearGradient-3">
            <stop stop-color="#E7B02B" offset="0%"></stop>
            <stop stop-color="#C13E51" offset="100%"></stop>
        </linearGradient>
    </defs>
    <g id="Welcome" stroke="none" stroke-width="1" fill="none" fill-rule="evenodd">
        <g id="Desktop-HD" transform="translate(-437.000000, -58.000000)">
            <g id="logo" transform="translate(437.000000, 58.000000)">
                <g id="Group-5">
                    <g>
                        <g id="Group-30">
                            <mask id="mask-2" fill="white">
                                <use xlink:href="#path-1"></use>
                            </mask>
                            <g id="Clip-29"></g>
                            <path d="M126.693669,60.172875 C127.385138,57.574875 127.733834,54.8895 127.733834,52.140375 C127.733834,43.67475 124.354591,35.995125 118.893906,30.40725 L118.897238,30.406125 L118.799884,30.307125 C118.791,30.2985 118.782486,30.2895 118.773602,30.280875 L98.0284033,9.267 C97.9854641,9.223125 97.9421547,9.179625 97.8992155,9.136125 L97.7111713,8.945625 L97.7145028,8.958 C92.2105083,3.505875 84.688,0.1365 76.4003591,0.1365 L32.5594088,0.1365 C15.7350055,0.1365 2.04775691,14.002875 2.04775691,31.046625 C2.04775691,41.37375 7.07127624,50.533125 14.7740552,56.149125 C6.46827624,57.127875 0,64.298625 0,72.97125 C0,77.65725 1.88932597,81.904125 4.93616022,84.9735 L25.3785635,105.673125 L25.3789337,105.667875 C28.4294696,108.946875 32.7507845,111 37.5388785,111 L53.381232,111 C61.7355028,111 69.3161271,107.5815 74.8319669,102.05175 C77.653,107.373375 83.2017845,111 89.5704862,111 L103.365083,111 C120.189486,111 133.876735,97.133625 133.876735,80.089875 C133.876735,72.703875 131.310006,65.7015 126.693669,60.172875" id="Fill-28" fill="url(#linearGradient-3)" mask="url(#mask-2)"></path>
                        </g>
                        <path d="M83.7391856,83 L69.9001222,83 C65.0215795,83 61.0669778,78.9921073 61.0669778,74.0486633 C61.0669778,69.1048429 65.0215795,65.0969502 69.9001222,65.0969502 L83.7391856,65.0969502 C86.4994968,65.0969502 88.7451045,62.8212951 88.7451045,60.0240494 C88.7451045,57.22718 86.4994968,54.9515249 83.7391856,54.9515249 L69.9001222,54.9515249 C65.0215795,54.9515249 61.0669778,50.9436322 61.0669778,45.9998118 C61.0669778,41.0559915 65.0215795,37.0484751 69.9001222,37.0484751 L77.5764835,37.0484751 C80.3367947,37.0484751 82.5824024,34.77282 82.5824024,31.9755743 C82.5824024,29.1783286 80.3367947,26.9026735 77.5764835,26.9026735 L33.5942126,26.9026735 C30.8339014,26.9026735 28.5882937,29.1783286 28.5882937,31.9755743 C28.5882937,34.77282 30.8339014,37.0484751 33.5942126,37.0484751 C46.095641,37.0484751 56.2664204,47.3553451 56.2664204,60.0240494 C56.2664204,72.69313 46.095641,83 33.5942126,83 L17.7007915,83 C12.8222487,83 8.86764706,78.9921073 8.86764706,74.0486633 C8.86764706,69.1048429 12.8222487,65.0969502 17.7007915,65.0969502 L33.5942126,65.0969502 C36.3545239,65.0969502 38.6001315,62.8212951 38.6001315,60.0240494 C38.6001315,57.22718 36.3545239,54.9515249 33.5942126,54.9515249 C21.092413,54.9515249 10.9216335,44.6442785 10.9216335,31.9755743 C10.9216335,19.30687 21.092413,9 33.5942126,9 L77.5764835,9 C90.0779118,9 100.249063,19.30687 100.249063,31.9755743 C100.249063,35.611655 99.4116481,39.0520451 97.921756,42.1108388 C103.094786,46.3253355 106.411765,52.7898971 106.411765,60.0240494 C106.411765,72.69313 96.2406139,83 83.7391856,83" id="Fill-31" fill="#FFFFFE"></path>
                    </g>
                </g>
            </g>
        </g>
    </g>
</svg>
