<svg viewBox="0 0 567 111" xmlns="http://www.w3.org/2000/svg"><defs><linearGradient x1="900.348%" y1="168.689%" x2="-223.779%" y2="11.726%" id="a"><stop stop-color="#E7B02B" offset="0%"/><stop stop-color="#B71B32" offset="100%"/></linearGradient><linearGradient x1="2613.951%" y1="155.619%" x2="-1118.104%" y2="1.848%" id="b"><stop stop-color="#E7B02B" offset="0%"/><stop stop-color="#B71B32" offset="100%"/></linearGradient><linearGradient x1="546.761%" y1="184.393%" x2="-285.796%" y2="-38.557%" id="c"><stop stop-color="#E7B02B" offset="0%"/><stop stop-color="#B71B32" offset="100%"/></linearGradient><linearGradient x1="640.557%" y1="130.724%" x2="-591.447%" y2="-34.222%" id="d"><stop stop-color="#E7B02B" offset="0%"/><stop stop-color="#B71B32" offset="100%"/></linearGradient><linearGradient x1="1835.894%" y1="116.586%" x2="-2414.678%" y2="-41.909%" id="e"><stop stop-color="#E7B02B" offset="0%"/><stop stop-color="#B71B32" offset="100%"/></linearGradient><linearGradient x1="541.667%" y1="128.734%" x2="-835.807%" y2="-93.344%" id="f"><stop stop-color="#E7B02B" offset="0%"/><stop stop-color="#B71B32" offset="100%"/></linearGradient><linearGradient x1="342.393%" y1="94.549%" x2="-762.445%" y2="-66.418%" id="g"><stop stop-color="#E7B02B" offset="0%"/><stop stop-color="#C13E51" offset="100%"/></linearGradient><linearGradient x1="294.521%" y1="88.696%" x2="-1122.309%" y2="-133.382%" id="h"><stop stop-color="#E7B02B" offset="0%"/><stop stop-color="#C13E51" offset="100%"/></linearGradient><linearGradient x1="219.156%" y1="70.839%" x2="-1573.811%" y2="-152.893%" id="i"><stop stop-color="#E7B02B" offset="0%"/><stop stop-color="#C13E51" offset="100%"/></linearGradient><linearGradient x1="2.379%" y1="13.22%" x2="90.858%" y2="91.018%" id="j"><stop stop-color="#E7B02B" offset="0%"/><stop stop-color="#B71B32" offset="100%"/></linearGradient></defs><g fill="none" fill-rule="evenodd"><path d="M12.16 62.037c-3.856-1.062-7.002-2.57-9.439-4.521-.85-.633-1.46-1.306-1.827-2.025-.37-.717-.554-1.621-.554-2.713 0-1.435.44-2.698 1.318-3.79.88-1.09 1.885-1.637 3.018-1.637a5.68 5.68 0 011.829.302c.596.202 1.318.56 2.168 1.077 2.437 1.55 4.903 2.684 7.398 3.402 2.494.719 5.242 1.077 8.248 1.077 3.74 0 6.602-.632 8.588-1.896 1.983-1.261 2.976-3.071 2.976-5.426 0-1.779-.923-3.215-2.764-4.307-1.842-1.09-5.116-2.123-9.82-3.1-5.272-1.09-9.481-2.412-12.627-3.962-3.146-1.55-5.442-3.474-6.888-5.772-1.446-2.295-2.168-5.08-2.168-8.354 0-3.618 1.035-6.876 3.104-9.776 2.068-2.9 4.931-5.168 8.588-6.805 3.656-1.636 7.78-2.454 12.371-2.454 8.049 0 14.68 2.039 19.897 6.115.85.689 1.459 1.393 1.828 2.11.368.72.553 1.594.553 2.628 0 1.435-.44 2.699-1.318 3.79-.88 1.091-1.886 1.636-3.019 1.636a5.669 5.669 0 01-1.743-.26c-.54-.17-1.29-.544-2.254-1.119-2.325-1.492-4.463-2.612-6.42-3.358-1.955-.746-4.435-1.12-7.44-1.12-3.457 0-6.178.676-8.161 2.024-1.985 1.35-2.976 3.2-2.976 5.555 0 1.379.382 2.513 1.148 3.403.765.891 2.04 1.679 3.826 2.368 1.785.69 4.321 1.408 7.61 2.154 7.708 1.722 13.25 3.934 16.622 6.632 3.372 2.7 5.06 6.403 5.06 11.111 0 3.675-1.007 6.92-3.019 9.733-2.013 2.814-4.846 4.996-8.503 6.546-3.655 1.55-7.893 2.325-12.711 2.325-4.479 0-8.645-.531-12.5-1.593" fill="url(#a)" transform="translate(155 22)"/><path d="M59.738 61.236c-1.245-1.015-1.865-2.51-1.865-4.484V25.875c0-1.973.635-3.469 1.908-4.484 1.272-1.014 2.834-1.522 4.686-1.522 1.85 0 3.398.508 4.642 1.522 1.243 1.015 1.865 2.51 1.865 4.484v30.877c0 1.975-.622 3.468-1.865 4.484-1.244 1.015-2.792 1.523-4.642 1.523-1.909 0-3.486-.508-4.729-1.523zm-.737-49.869c-1.331-1.155-1.996-2.72-1.996-4.695 0-1.973.665-3.523 1.996-4.652C60.33.893 62.153.328 64.467.328c2.255 0 4.062.578 5.423 1.734 1.358 1.156 2.038 2.694 2.038 4.61 0 1.975-.665 3.54-1.995 4.695-1.331 1.157-3.153 1.734-5.466 1.734-2.314 0-4.136-.577-5.466-1.734z" fill="url(#b)" transform="translate(155 22)"/><path d="M143.184 24.253c2.4 2.705 3.602 7.122 3.602 13.254v19.317c0 1.952-.585 3.428-1.758 4.432-1.174 1.004-2.682 1.505-4.526 1.505-1.787 0-3.297-.501-4.524-1.505-1.23-1.004-1.844-2.48-1.844-4.432V37.34c0-2.676-.46-4.558-1.382-5.645-.922-1.087-2.333-1.63-4.23-1.63-2.347 0-4.22.81-5.615 2.425-1.397 1.618-2.095 3.875-2.095 6.774v17.56c0 1.952-.586 3.428-1.759 4.432-1.173 1.004-2.682 1.505-4.525 1.505-1.788 0-3.297-.501-4.525-1.505-1.229-1.004-1.843-2.48-1.843-4.432V37.34c0-2.676-.46-4.558-1.382-5.645-.922-1.087-2.334-1.63-4.232-1.63-2.345 0-4.218.81-5.613 2.425-1.397 1.618-2.095 3.875-2.095 6.774v17.56c0 1.952-.602 3.428-1.802 4.432-1.202 1.004-2.695 1.505-4.482 1.505-1.79 0-3.297-.501-4.525-1.505-1.23-1.004-1.843-2.48-1.843-4.432v-30.69c0-1.84.627-3.261 1.885-4.265 1.257-1.002 2.778-1.504 4.567-1.504 1.675 0 3.07.488 4.19 1.463 1.116.976 1.675 2.328 1.675 4.056v.836c1.34-2.118 3.085-3.734 5.236-4.85 2.15-1.115 4.595-1.673 7.332-1.673 2.96 0 5.46.6 7.499 1.798 2.038 1.2 3.616 3.136 4.734 5.812 1.284-2.342 3.113-4.194 5.488-5.561 2.374-1.366 5.07-2.049 8.086-2.049 4.468 0 7.904 1.353 10.306 4.056" fill="url(#c)" transform="translate(155 22)"/><path d="M184.82 50.434c1.626-1.984 2.44-4.85 2.44-8.597 0-3.802-.814-6.751-2.44-8.848-1.627-2.097-3.925-3.145-6.897-3.145-2.974 0-5.272 1.02-6.897 3.061-1.628 2.041-2.44 4.963-2.44 8.764 0 3.747.812 6.64 2.44 8.681 1.625 2.041 3.923 3.061 6.897 3.061 2.972 0 5.27-.992 6.898-2.977zm6.267-27.51c2.776 1.818 4.934 4.361 6.477 7.632 1.541 3.27 2.314 7.033 2.314 11.281 0 4.25-.773 7.982-2.314 11.197-1.543 3.216-3.688 5.69-6.434 7.422-2.749 1.734-5.918 2.6-9.506 2.6-2.804 0-5.341-.574-7.613-1.719-2.27-1.146-4.024-2.754-5.257-4.822v15.852c0 1.676-.56 3.019-1.682 4.025-1.122 1.006-2.608 1.51-4.458 1.51-1.963 0-3.548-.532-4.753-1.594-1.206-1.063-1.809-2.46-1.809-4.194V26.321c0-1.79.576-3.23 1.726-4.32 1.148-1.09 2.676-1.635 4.583-1.635 1.906 0 3.42.545 4.543 1.635 1.12 1.09 1.682 2.53 1.682 4.32v.67c1.233-2.124 2.999-3.786 5.3-4.99 2.298-1.202 4.878-1.803 7.738-1.803 3.533 0 6.688.91 9.463 2.725z" fill="url(#d)" transform="translate(155 22)"/><path d="M211.808 60.268c-1.109-.996-1.663-2.462-1.663-4.401V8.204c0-1.937.554-3.405 1.663-4.401 1.108-.997 2.513-1.495 4.216-1.495 1.65 0 3.027.498 4.138 1.495 1.108.996 1.663 2.464 1.663 4.4v47.664c0 1.939-.555 3.405-1.663 4.401-1.11.997-2.489 1.495-4.138 1.495-1.703 0-3.108-.498-4.216-1.495" fill="url(#e)" transform="translate(155 22)"/><path d="M244.537 31.193c-1.512 1.535-2.413 3.75-2.703 6.649h16.837c-.174-2.955-.944-5.185-2.313-6.69-1.366-1.506-3.3-2.258-5.802-2.258-2.499 0-4.506.767-6.019 2.3zm23.866 20.196c.727.891 1.09 2.035 1.09 3.428 0 .949-.294 1.827-.874 2.635-.58.808-1.396 1.492-2.444 2.048-1.977 1.003-4.274 1.827-6.893 2.467-2.615.64-5.032.961-7.24.961-4.658 0-8.711-.864-12.173-2.592-3.462-1.728-6.123-4.194-7.984-7.4-1.864-3.205-2.792-6.983-2.792-11.331 0-4.181.901-7.888 2.704-11.122 1.802-3.233 4.305-5.755 7.503-7.568 3.2-1.81 6.835-2.718 10.908-2.718 3.895 0 7.314.823 10.254 2.467 2.935 1.645 5.221 3.986 6.85 7.024 1.628 3.04 2.44 6.594 2.44 10.662 0 1.227-.305 2.162-.912 2.801-.612.642-1.474.962-2.576.962h-24.43c.406 3.29 1.45 5.674 3.14 7.15 1.687 1.477 4.1 2.216 7.241 2.216 1.687 0 3.2-.195 4.537-.585 1.339-.39 2.82-.92 4.452-1.589a35.774 35.774 0 012.356-.878c.754-.25 1.423-.377 2.007-.377 1.16 0 2.108.447 2.836 1.339z" fill="url(#f)" transform="translate(155 22)"/><path d="M312.304 49.858c1.563-1.177 2.346-3.082 2.346-5.717 0-2.633-.783-4.566-2.346-5.8-1.563-1.232-4.076-1.85-7.536-1.85h-13.82v15.133h13.82c3.46 0 5.973-.588 7.536-1.766zm-21.356-23.37h12.313c3.348 0 5.817-.574 7.41-1.724 1.592-1.148 2.386-2.9 2.386-5.254 0-2.466-.794-4.274-2.387-5.423-1.592-1.148-4.06-1.723-7.409-1.723h-12.313v14.123zm33.12 9.709c1.87 2.495 2.806 5.563 2.806 9.206 0 4.989-1.83 8.94-5.487 11.853-3.656 2.916-8.694 4.372-15.112 4.372h-21.942c-1.953 0-3.46-.531-4.521-1.597-1.058-1.065-1.59-2.578-1.59-4.54V8.497c0-1.962.532-3.475 1.59-4.54 1.061-1.064 2.568-1.598 4.52-1.598h21.104c6.14 0 11.01 1.374 14.615 4.12 3.6 2.747 5.397 6.502 5.397 11.265 0 3.083-.824 5.788-2.468 8.113-1.648 2.326-3.924 4.022-6.827 5.086 3.408 1.009 6.044 2.76 7.914 5.254z" fill="url(#g)" transform="translate(155 22)"/><path d="M356.545 51.765c1.547-1.644 2.32-3.776 2.32-6.398v-1.42h-1.458c-4.645 0-7.895.362-9.758 1.086-1.864.725-2.793 2.035-2.793 3.93 0 1.562.53 2.83 1.589 3.806 1.063.975 2.392 1.462 3.996 1.462 2.523 0 4.557-.82 6.104-2.466zm10.227-27.177c2.98 2.926 4.473 7.4 4.473 13.42v18.9c0 1.84-.548 3.276-1.634 4.306-1.09 1.032-2.61 1.547-4.557 1.547-1.833 0-3.308-.543-4.424-1.63-1.12-1.087-1.68-2.495-1.68-4.223v-.586c-.858 2.063-2.29 3.68-4.298 4.85-2.004 1.17-4.352 1.756-7.045 1.756-2.866 0-5.457-.557-7.78-1.672-2.321-1.114-4.154-2.676-5.499-4.683-1.349-2.007-2.023-4.236-2.023-6.69 0-3.01.789-5.379 2.366-7.108 1.574-1.727 4.111-2.982 7.605-3.763 3.494-.78 8.28-1.17 14.353-1.17h2.237v-1.506c0-2.34-.53-4.041-1.589-5.1-1.063-1.059-2.823-1.59-5.289-1.59-2.461 0-6.016.837-10.657 2.51-1.318.614-2.434.92-3.353.92-1.26 0-2.263-.432-3.006-1.297-.747-.863-1.12-1.993-1.12-3.387 0-1.114.259-2.034.777-2.759.514-.724 1.345-1.393 2.492-2.007 2.004-1.059 4.454-1.895 7.35-2.509a41.197 41.197 0 018.55-.92c6.188 0 10.771 1.464 13.751 4.391z" fill="url(#h)" transform="translate(155 22)"/><path d="M410.223 21.494c.994.865 1.49 2.161 1.49 3.888 0 1.84-.454 3.207-1.361 4.098-.911.892-2.533 1.45-4.862 1.672l-2.56.251c-3.126.334-5.387 1.338-6.782 3.01-1.39 1.673-2.086 3.82-2.086 6.44v15.97c0 1.953-.613 3.43-1.834 4.433-1.225 1.004-2.745 1.505-4.563 1.505-1.875 0-3.429-.501-4.65-1.505-1.221-1.004-1.834-2.48-1.834-4.432v-30.69c0-1.84.628-3.261 1.88-4.265 1.247-1.002 2.755-1.504 4.517-1.504 1.705 0 3.127.488 4.264 1.463 1.138.976 1.705 2.328 1.705 4.056v2.257c1.025-2.395 2.575-4.235 4.65-5.518a14.597 14.597 0 016.779-2.174l1.194-.084c1.705-.111 3.055.265 4.053 1.129" fill="url(#i)" transform="translate(155 22)"/><g><path d="M126.694 60.173a31.143 31.143 0 001.04-8.033c0-8.465-3.38-16.145-8.84-21.733h.003l-.097-.1-.026-.026L98.028 9.267l-.129-.13-.188-.191.004.012C92.21 3.506 84.688.136 76.4.136H32.56c-16.825 0-30.512 13.867-30.512 30.91A31.013 31.013 0 0014.774 56.15C6.468 57.128 0 64.3 0 72.971c0 4.686 1.89 8.933 4.936 12.002l20.443 20.7v-.005c3.05 3.279 7.372 5.332 12.16 5.332H53.38c8.355 0 15.935-3.418 21.451-8.948 2.821 5.321 8.37 8.948 14.738 8.948h13.795c16.824 0 30.512-13.866 30.512-30.91 0-7.386-2.567-14.389-7.183-19.917" fill="url(#j)"/><path d="M83.74 83H69.9c-4.878 0-8.833-4.008-8.833-8.951 0-4.944 3.955-8.952 8.833-8.952h13.84c2.76 0 5.005-2.276 5.005-5.073 0-2.797-2.246-5.072-5.006-5.072H69.9c-4.878 0-8.833-4.008-8.833-8.952s3.955-8.952 8.833-8.952h7.676c2.76 0 5.006-2.275 5.006-5.072 0-2.798-2.245-5.073-5.006-5.073H33.594c-2.76 0-5.006 2.275-5.006 5.073 0 2.797 2.246 5.072 5.006 5.072 12.502 0 22.672 10.307 22.672 22.976C56.266 72.694 46.096 83 33.594 83H17.701c-4.879 0-8.833-4.008-8.833-8.951 0-4.944 3.954-8.952 8.833-8.952h15.893c2.76 0 5.006-2.276 5.006-5.073 0-2.797-2.245-5.072-5.006-5.072-12.502 0-22.672-10.308-22.672-22.976C10.922 19.306 21.092 9 33.594 9h43.982c12.502 0 22.673 10.307 22.673 22.976 0 3.636-.837 7.076-2.327 10.135a23.06 23.06 0 018.49 17.913C106.412 72.694 96.24 83 83.739 83" fill="#FFFFFE"/></g></g></svg>
